<?xml version="1.0" encoding="UTF-8"?>
<svg id="Layer_1" data-name="Layer 1" xmlns="http://www.w3.org/2000/svg" viewBox="0 0 734.04 393.03">
  <defs>
    <style>
      .cls-1 {
        fill: #0078d1;
      }

      .cls-1, .cls-2, .cls-3, .cls-4, .cls-5, .cls-6, .cls-7, .cls-8 {
        stroke-width: 0px;
      }

      .cls-2 {
        fill: #f37c11;
      }

      .cls-3 {
        fill: #989898;
      }

      .cls-4 {
        fill: #fcb604;
      }

      .cls-5 {
        fill: #fb2901;
      }

      .cls-6 {
        fill: #107d0f;
      }

      .cls-7 {
        fill: #494949;
      }

      .cls-8 {
        fill: #01477d;
      }
    </style>
  </defs>
  <g>
    <path class="cls-7" d="M1.58,307.74h19.24v5.76H7.82v5.28h12.28v5.76H7.82v5.76h13.72v5.76H1.58v-28.32Z"/>
    <path class="cls-7" d="M46.18,336.06h-5.52v-2.56h-.08c-.24.35-.55.7-.94,1.06-.39.36-.84.69-1.36.98-.52.29-1.09.53-1.72.72-.63.19-1.27.28-1.94.28-1.44,0-2.75-.25-3.92-.74-1.17-.49-2.18-1.19-3.02-2.08-.84-.89-1.49-1.95-1.94-3.18-.45-1.23-.68-2.57-.68-4.04,0-1.36.21-2.66.62-3.9.41-1.24,1-2.34,1.76-3.3.76-.96,1.69-1.73,2.78-2.3s2.33-.86,3.72-.86c1.25,0,2.42.19,3.5.58,1.08.39,1.97,1.05,2.66,1.98h.08v-12.88h6v30.24ZM40.66,326.34c0-1.47-.42-2.65-1.26-3.56s-2.02-1.36-3.54-1.36-2.7.45-3.54,1.36-1.26,2.09-1.26,3.56.42,2.65,1.26,3.56c.84.91,2.02,1.36,3.54,1.36s2.7-.45,3.54-1.36c.84-.91,1.26-2.09,1.26-3.56Z"/>
    <path class="cls-7" d="M69.7,336.06h-5.76v-2.64h-.08c-.21.37-.49.75-.82,1.12s-.74.71-1.22,1c-.48.29-1.03.53-1.64.72-.61.19-1.28.28-2,.28-1.52,0-2.75-.23-3.7-.7-.95-.47-1.68-1.11-2.2-1.94-.52-.83-.87-1.8-1.04-2.92-.17-1.12-.26-2.33-.26-3.64v-10.72h6v9.52c0,.56.02,1.14.06,1.74s.16,1.15.36,1.66.51.92.92,1.24c.41.32,1.01.48,1.78.48s1.4-.14,1.88-.42c.48-.28.85-.65,1.1-1.12.25-.47.42-.99.5-1.58.08-.59.12-1.2.12-1.84v-9.68h6v19.44Z"/>
    <path class="cls-7" d="M87.1,322.9c-.29-.43-.71-.78-1.24-1.06-.53-.28-1.11-.42-1.72-.42-1.52,0-2.7.45-3.54,1.36s-1.26,2.09-1.26,3.56.42,2.65,1.26,3.56c.84.91,2.02,1.36,3.54,1.36.67,0,1.24-.15,1.72-.44.48-.29.89-.64,1.24-1.04l3.96,4.16c-.93.96-2.03,1.63-3.3,2.02-1.27.39-2.47.58-3.62.58-1.49,0-2.9-.24-4.22-.72-1.32-.48-2.47-1.17-3.44-2.06-.97-.89-1.74-1.97-2.3-3.22-.56-1.25-.84-2.65-.84-4.2s.28-2.95.84-4.2c.56-1.25,1.33-2.33,2.3-3.22.97-.89,2.12-1.58,3.44-2.06,1.32-.48,2.73-.72,4.22-.72,1.15,0,2.35.19,3.62.58,1.27.39,2.37,1.06,3.3,2.02l-3.96,4.16Z"/>
    <path class="cls-7" d="M105.42,333.62h-.08c-.67,1.04-1.55,1.79-2.66,2.24-1.11.45-2.27.68-3.5.68-.91,0-1.78-.13-2.62-.38-.84-.25-1.58-.63-2.22-1.14-.64-.51-1.15-1.13-1.52-1.88-.37-.75-.56-1.61-.56-2.6,0-1.12.21-2.07.62-2.84.41-.77.97-1.41,1.68-1.92.71-.51,1.51-.9,2.42-1.18.91-.28,1.85-.49,2.82-.62.97-.13,1.95-.21,2.92-.24.97-.03,1.87-.04,2.7-.04,0-1.07-.38-1.91-1.14-2.54-.76-.63-1.66-.94-2.7-.94s-1.89.21-2.7.62c-.81.41-1.54.98-2.18,1.7l-3.2-3.28c1.12-1.04,2.43-1.82,3.92-2.34,1.49-.52,3.04-.78,4.64-.78,1.76,0,3.21.22,4.34.66s2.04,1.09,2.72,1.94c.68.85,1.15,1.9,1.42,3.14.27,1.24.4,2.67.4,4.3v9.88h-5.52v-2.44ZM103.94,327.54c-.45,0-1.02.02-1.7.06-.68.04-1.33.15-1.96.34-.63.19-1.16.47-1.6.84-.44.37-.66.89-.66,1.56,0,.72.31,1.25.92,1.6.61.35,1.25.52,1.92.52.59,0,1.15-.08,1.7-.24.55-.16,1.03-.39,1.46-.68.43-.29.77-.67,1.02-1.12.25-.45.38-.99.38-1.6v-1.28h-1.48Z"/>
    <path class="cls-7" d="M127.94,321.42h-5.28v6.48c0,.53.03,1.02.08,1.46.05.44.17.82.36,1.14.19.32.47.57.86.74.39.17.9.26,1.54.26.32,0,.74-.03,1.26-.1.52-.07.91-.22,1.18-.46v5c-.67.24-1.36.4-2.08.48-.72.08-1.43.12-2.12.12-1.01,0-1.95-.11-2.8-.32-.85-.21-1.6-.55-2.24-1.02s-1.14-1.07-1.5-1.82c-.36-.75-.54-1.65-.54-2.72v-9.24h-3.84v-4.8h3.84v-5.76h6v5.76h5.28v4.8Z"/>
    <path class="cls-7" d="M130.58,310.5c0-.96.34-1.78,1.02-2.46.68-.68,1.5-1.02,2.46-1.02s1.78.34,2.46,1.02c.68.68,1.02,1.5,1.02,2.46s-.34,1.78-1.02,2.46-1.5,1.02-2.46,1.02-1.78-.34-2.46-1.02c-.68-.68-1.02-1.5-1.02-2.46ZM131.06,316.62h6v19.44h-6v-19.44Z"/>
    <path class="cls-7" d="M140.66,326.34c0-1.55.28-2.95.84-4.2.56-1.25,1.33-2.33,2.3-3.22.97-.89,2.12-1.58,3.44-2.06,1.32-.48,2.73-.72,4.22-.72s2.9.24,4.22.72c1.32.48,2.47,1.17,3.44,2.06.97.89,1.74,1.97,2.3,3.22.56,1.25.84,2.65.84,4.2s-.28,2.95-.84,4.2c-.56,1.25-1.33,2.33-2.3,3.22-.97.89-2.12,1.58-3.44,2.06-1.32.48-2.73.72-4.22.72s-2.9-.24-4.22-.72c-1.32-.48-2.47-1.17-3.44-2.06-.97-.89-1.74-1.97-2.3-3.22-.56-1.25-.84-2.65-.84-4.2ZM146.66,326.34c0,1.47.42,2.65,1.26,3.56.84.91,2.02,1.36,3.54,1.36s2.7-.45,3.54-1.36c.84-.91,1.26-2.09,1.26-3.56s-.42-2.65-1.26-3.56-2.02-1.36-3.54-1.36-2.7.45-3.54,1.36-1.26,2.09-1.26,3.56Z"/>
    <path class="cls-7" d="M165.78,316.62h5.76v2.64h.08c.19-.37.45-.75.8-1.12.35-.37.76-.71,1.24-1,.48-.29,1.03-.53,1.64-.72s1.28-.28,2-.28c1.52,0,2.75.23,3.68.7.93.47,1.66,1.11,2.18,1.94.52.83.87,1.8,1.06,2.92.19,1.12.28,2.33.28,3.64v10.72h-6v-9.52c0-.56-.02-1.14-.06-1.74s-.16-1.15-.36-1.66c-.2-.51-.51-.92-.92-1.24-.41-.32-1.01-.48-1.78-.48s-1.4.14-1.88.42c-.48.28-.85.65-1.1,1.12-.25.47-.42.99-.5,1.58s-.12,1.2-.12,1.84v9.68h-6v-19.44Z"/>
    <path class="cls-7" d="M222.26,329.38l6.32,6.68h-7.72l-2.36-2.68c-1.17,1.2-2.43,2.07-3.78,2.6s-2.86.8-4.54.8c-1.28,0-2.52-.17-3.72-.52s-2.27-.87-3.22-1.58c-.95-.71-1.7-1.59-2.26-2.66-.56-1.07-.84-2.31-.84-3.72,0-.91.15-1.77.46-2.58s.73-1.55,1.28-2.22c.55-.67,1.18-1.25,1.9-1.74.72-.49,1.51-.89,2.36-1.18-.45-.51-.87-.99-1.26-1.44-.39-.45-.72-.93-1-1.44s-.49-1.04-.64-1.6c-.15-.56-.22-1.19-.22-1.88,0-1.28.25-2.37.74-3.28.49-.91,1.15-1.65,1.98-2.24.83-.59,1.77-1.01,2.84-1.28,1.07-.27,2.16-.4,3.28-.4s2.13.14,3.12.42c.99.28,1.86.71,2.62,1.28.76.57,1.37,1.29,1.82,2.16.45.87.68,1.9.68,3.1,0,.85-.14,1.64-.42,2.36-.28.72-.66,1.39-1.14,2.02-.48.63-1.03,1.19-1.66,1.68-.63.49-1.3.93-2.02,1.3l3.64,3.88,2.76-3.76h6.96l-5.96,7.92ZM209.86,323.98c-.4.24-.79.49-1.18.74-.39.25-.73.53-1.04.84-.31.31-.55.66-.74,1.06-.19.4-.28.87-.28,1.4s.11,1.01.32,1.44c.21.43.49.79.84,1.08.35.29.75.53,1.22.7.47.17.94.26,1.42.26.93,0,1.74-.2,2.42-.6.68-.4,1.35-.89,2.02-1.48l-5-5.44ZM211.78,311.82c-.77,0-1.43.24-1.96.72-.53.48-.8,1.12-.8,1.92,0,.35.08.69.24,1.02.16.33.35.65.58.96.23.31.48.59.76.86.28.27.54.51.78.72.32-.19.67-.41,1.04-.66.37-.25.72-.53,1.04-.84.32-.31.59-.64.8-1,.21-.36.32-.74.32-1.14,0-.83-.27-1.46-.82-1.9-.55-.44-1.21-.66-1.98-.66Z"/>
    <path class="cls-7" d="M249.02,313.26h-8.08v-5.52h22.4v5.52h-8.08v22.8h-6.24v-22.8Z"/>
    <path class="cls-7" d="M262.06,316.62h6v3.12h.08c.64-1.2,1.4-2.1,2.28-2.7.88-.6,1.99-.9,3.32-.9.35,0,.69.01,1.04.04.35.03.67.08.96.16v5.48c-.43-.13-.85-.23-1.26-.3-.41-.07-.85-.1-1.3-.1-1.15,0-2.05.16-2.72.48-.67.32-1.18.77-1.54,1.34-.36.57-.59,1.26-.7,2.06-.11.8-.16,1.68-.16,2.64v8.12h-6v-19.44Z"/>
    <path class="cls-7" d="M290.54,333.62h-.08c-.67,1.04-1.55,1.79-2.66,2.24-1.11.45-2.27.68-3.5.68-.91,0-1.78-.13-2.62-.38-.84-.25-1.58-.63-2.22-1.14-.64-.51-1.15-1.13-1.52-1.88-.37-.75-.56-1.61-.56-2.6,0-1.12.21-2.07.62-2.84.41-.77.97-1.41,1.68-1.92.71-.51,1.51-.9,2.42-1.18.91-.28,1.85-.49,2.82-.62.97-.13,1.95-.21,2.92-.24.97-.03,1.87-.04,2.7-.04,0-1.07-.38-1.91-1.14-2.54-.76-.63-1.66-.94-2.7-.94s-1.89.21-2.7.62c-.81.41-1.54.98-2.18,1.7l-3.2-3.28c1.12-1.04,2.43-1.82,3.92-2.34,1.49-.52,3.04-.78,4.64-.78,1.76,0,3.21.22,4.34.66s2.04,1.09,2.72,1.94c.68.85,1.15,1.9,1.42,3.14.27,1.24.4,2.67.4,4.3v9.88h-5.52v-2.44ZM289.06,327.54c-.45,0-1.02.02-1.7.06-.68.04-1.33.15-1.96.34-.63.19-1.16.47-1.6.84-.44.37-.66.89-.66,1.56,0,.72.31,1.25.92,1.6.61.35,1.25.52,1.92.52.59,0,1.15-.08,1.7-.24.55-.16,1.03-.39,1.46-.68.43-.29.77-.67,1.02-1.12.25-.45.38-.99.38-1.6v-1.28h-1.48Z"/>
    <path class="cls-7" d="M299.42,310.5c0-.96.34-1.78,1.02-2.46.68-.68,1.5-1.02,2.46-1.02s1.78.34,2.46,1.02c.68.68,1.02,1.5,1.02,2.46s-.34,1.78-1.02,2.46-1.5,1.02-2.46,1.02-1.78-.34-2.46-1.02c-.68-.68-1.02-1.5-1.02-2.46ZM299.9,316.62h6v19.44h-6v-19.44Z"/>
    <path class="cls-7" d="M310.22,316.62h5.76v2.64h.08c.19-.37.45-.75.8-1.12.35-.37.76-.71,1.24-1,.48-.29,1.03-.53,1.64-.72s1.28-.28,2-.28c1.52,0,2.75.23,3.68.7.93.47,1.66,1.11,2.18,1.94.52.83.87,1.8,1.06,2.92.19,1.12.28,2.33.28,3.64v10.72h-6v-9.52c0-.56-.02-1.14-.06-1.74s-.16-1.15-.36-1.66c-.2-.51-.51-.92-.92-1.24-.41-.32-1.01-.48-1.78-.48s-1.4.14-1.88.42c-.48.28-.85.65-1.1,1.12-.25.47-.42.99-.5,1.58s-.12,1.2-.12,1.84v9.68h-6v-19.44Z"/>
    <path class="cls-7" d="M332.78,310.5c0-.96.34-1.78,1.02-2.46.68-.68,1.5-1.02,2.46-1.02s1.78.34,2.46,1.02c.68.68,1.02,1.5,1.02,2.46s-.34,1.78-1.02,2.46-1.5,1.02-2.46,1.02-1.78-.34-2.46-1.02c-.68-.68-1.02-1.5-1.02-2.46ZM333.26,316.62h6v19.44h-6v-19.44Z"/>
    <path class="cls-7" d="M343.58,316.62h5.76v2.64h.08c.19-.37.45-.75.8-1.12.35-.37.76-.71,1.24-1,.48-.29,1.03-.53,1.64-.72s1.28-.28,2-.28c1.52,0,2.75.23,3.68.7.93.47,1.66,1.11,2.18,1.94.52.83.87,1.8,1.06,2.92.19,1.12.28,2.33.28,3.64v10.72h-6v-9.52c0-.56-.02-1.14-.06-1.74s-.16-1.15-.36-1.66c-.2-.51-.51-.92-.92-1.24-.41-.32-1.01-.48-1.78-.48s-1.4.14-1.88.42c-.48.28-.85.65-1.1,1.12-.25.47-.42.99-.5,1.58s-.12,1.2-.12,1.84v9.68h-6v-19.44Z"/>
    <path class="cls-7" d="M386.94,334.42c0,3.68-.93,6.47-2.78,8.38-1.85,1.91-4.67,2.86-8.46,2.86-1.73,0-3.44-.19-5.12-.58-1.68-.39-3.23-1.14-4.64-2.26l3.32-4.96c.93.77,1.91,1.39,2.94,1.84,1.03.45,2.15.68,3.38.68,1.84,0,3.19-.45,4.06-1.34.87-.89,1.3-2.03,1.3-3.42v-1.88h-.08c-.69.93-1.55,1.59-2.58,1.98-1.03.39-1.99.58-2.9.58-1.44,0-2.75-.25-3.92-.74-1.17-.49-2.18-1.19-3.02-2.08-.84-.89-1.49-1.95-1.94-3.18-.45-1.23-.68-2.57-.68-4.04,0-1.28.21-2.53.62-3.76.41-1.23,1-2.31,1.76-3.24.76-.93,1.69-1.69,2.78-2.26s2.33-.86,3.72-.86c.85,0,1.63.09,2.34.28.71.19,1.34.43,1.9.72.56.29,1.04.62,1.44.98.4.36.72.71.96,1.06h.08v-2.56h5.52v17.8ZM371.82,326.22c0,.64.12,1.25.36,1.82s.58,1.08,1.02,1.52c.44.44.95.79,1.52,1.06s1.21.4,1.9.4,1.29-.13,1.88-.4c.59-.27,1.1-.62,1.54-1.06s.78-.95,1.02-1.52c.24-.57.36-1.18.36-1.82s-.12-1.25-.36-1.82c-.24-.57-.58-1.08-1.02-1.52s-.95-.79-1.54-1.06c-.59-.27-1.21-.4-1.88-.4s-1.33.13-1.9.4c-.57.27-1.08.62-1.52,1.06-.44.44-.78.95-1.02,1.52-.24.57-.36,1.18-.36,1.82Z"/>
    <path class="cls-7" d="M435.34,336.06h-17.16c-2.21,0-4.26-.33-6.14-.98s-3.5-1.61-4.86-2.86c-1.36-1.25-2.43-2.77-3.2-4.56s-1.16-3.83-1.16-6.12c0-2.13.39-4.09,1.18-5.88.79-1.79,1.86-3.32,3.22-4.6,1.36-1.28,2.96-2.27,4.8-2.98,1.84-.71,3.81-1.06,5.92-1.06s4.08.36,5.92,1.08c1.84.72,3.44,1.72,4.8,3,1.36,1.28,2.43,2.81,3.22,4.58.79,1.77,1.18,3.73,1.18,5.86,0,1.01-.11,2-.34,2.96s-.57,1.87-1.02,2.72c-.45.85-1.04,1.62-1.76,2.3-.72.68-1.56,1.23-2.52,1.66v.08h7.92v4.8ZM409.3,321.54c0,1.23.23,2.37.68,3.44.45,1.07,1.07,1.99,1.86,2.78.79.79,1.7,1.41,2.74,1.86s2.16.68,3.36.68,2.32-.23,3.36-.68,1.95-1.07,2.74-1.86,1.41-1.71,1.86-2.78c.45-1.07.68-2.21.68-3.44s-.23-2.37-.68-3.44c-.45-1.07-1.07-1.99-1.86-2.78-.79-.79-1.7-1.41-2.74-1.86s-2.16-.68-3.36-.68-2.32.23-3.36.68-1.95,1.07-2.74,1.86-1.41,1.71-1.86,2.78c-.45,1.07-.68,2.21-.68,3.44Z"/>
    <path class="cls-7" d="M456.38,336.06h-5.76v-2.64h-.08c-.21.37-.49.75-.82,1.12s-.74.71-1.22,1c-.48.29-1.03.53-1.64.72-.61.19-1.28.28-2,.28-1.52,0-2.75-.23-3.7-.7-.95-.47-1.68-1.11-2.2-1.94-.52-.83-.87-1.8-1.04-2.92-.17-1.12-.26-2.33-.26-3.64v-10.72h6v9.52c0,.56.02,1.14.06,1.74s.16,1.15.36,1.66.51.92.92,1.24c.41.32,1.01.48,1.78.48s1.4-.14,1.88-.42c.48-.28.85-.65,1.1-1.12.25-.47.42-.99.5-1.58.08-.59.12-1.2.12-1.84v-9.68h6v19.44Z"/>
    <path class="cls-7" d="M472.82,333.62h-.08c-.67,1.04-1.55,1.79-2.66,2.24-1.11.45-2.27.68-3.5.68-.91,0-1.78-.13-2.62-.38-.84-.25-1.58-.63-2.22-1.14-.64-.51-1.15-1.13-1.52-1.88-.37-.75-.56-1.61-.56-2.6,0-1.12.21-2.07.62-2.84.41-.77.97-1.41,1.68-1.92.71-.51,1.51-.9,2.42-1.18.91-.28,1.85-.49,2.82-.62.97-.13,1.95-.21,2.92-.24.97-.03,1.87-.04,2.7-.04,0-1.07-.38-1.91-1.14-2.54-.76-.63-1.66-.94-2.7-.94s-1.89.21-2.7.62c-.81.41-1.54.98-2.18,1.7l-3.2-3.28c1.12-1.04,2.43-1.82,3.92-2.34,1.49-.52,3.04-.78,4.64-.78,1.76,0,3.21.22,4.34.66s2.04,1.09,2.72,1.94c.68.85,1.15,1.9,1.42,3.14.27,1.24.4,2.67.4,4.3v9.88h-5.52v-2.44ZM471.34,327.54c-.45,0-1.02.02-1.7.06-.68.04-1.33.15-1.96.34-.63.19-1.16.47-1.6.84-.44.37-.66.89-.66,1.56,0,.72.31,1.25.92,1.6.61.35,1.25.52,1.92.52.59,0,1.15-.08,1.7-.24.55-.16,1.03-.39,1.46-.68.43-.29.77-.67,1.02-1.12.25-.45.38-.99.38-1.6v-1.28h-1.48Z"/>
    <path class="cls-7" d="M482.18,305.82h6v30.24h-6v-30.24Z"/>
    <path class="cls-7" d="M492.1,310.5c0-.96.34-1.78,1.02-2.46.68-.68,1.5-1.02,2.46-1.02s1.78.34,2.46,1.02c.68.68,1.02,1.5,1.02,2.46s-.34,1.78-1.02,2.46-1.5,1.02-2.46,1.02-1.78-.34-2.46-1.02c-.68-.68-1.02-1.5-1.02-2.46ZM492.58,316.62h6v19.44h-6v-19.44Z"/>
    <path class="cls-7" d="M516.14,321.42h-5.28v6.48c0,.53.03,1.02.08,1.46.05.44.17.82.36,1.14.19.32.47.57.86.74.39.17.9.26,1.54.26.32,0,.74-.03,1.26-.1.52-.07.91-.22,1.18-.46v5c-.67.24-1.36.4-2.08.48-.72.08-1.43.12-2.12.12-1.01,0-1.95-.11-2.8-.32-.85-.21-1.6-.55-2.24-1.02s-1.14-1.07-1.5-1.82c-.36-.75-.54-1.65-.54-2.72v-9.24h-3.84v-4.8h3.84v-5.76h6v5.76h5.28v4.8Z"/>
    <path class="cls-7" d="M530.38,339.22c-.4,1.04-.79,1.96-1.16,2.76-.37.8-.85,1.47-1.42,2.02-.57.55-1.3.96-2.18,1.24-.88.28-2.04.42-3.48.42-1.55,0-3.04-.24-4.48-.72l.8-4.92c.91.4,1.84.6,2.8.6.67,0,1.21-.07,1.64-.22s.78-.36,1.06-.64c.28-.28.51-.62.7-1.02.19-.4.39-.87.6-1.4l.44-1.12-8.52-19.6h6.48l5,12.84h.08l4.28-12.84h6.16l-8.8,22.6Z"/>
    <path class="cls-7" d="M563.34,307.74h5.16l12.32,28.32h-7.04l-2.44-6h-11l-2.36,6h-6.88l12.24-28.32ZM565.74,315.98l-3.44,8.8h6.92l-3.48-8.8Z"/>
    <path class="cls-7" d="M601.62,336.06h-5.76v-2.64h-.08c-.21.37-.49.75-.82,1.12s-.74.71-1.22,1c-.48.29-1.03.53-1.64.72-.61.19-1.28.28-2,.28-1.52,0-2.75-.23-3.7-.7-.95-.47-1.68-1.11-2.2-1.94-.52-.83-.87-1.8-1.04-2.92-.17-1.12-.26-2.33-.26-3.64v-10.72h6v9.52c0,.56.02,1.14.06,1.74s.16,1.15.36,1.66.51.92.92,1.24c.41.32,1.01.48,1.78.48s1.4-.14,1.88-.42c.48-.28.85-.65,1.1-1.12.25-.47.42-.99.5-1.58.08-.59.12-1.2.12-1.84v-9.68h6v19.44Z"/>
    <path class="cls-7" d="M619.1,321.42h-5.28v6.48c0,.53.03,1.02.08,1.46.05.44.17.82.36,1.14.19.32.47.57.86.74.39.17.9.26,1.54.26.32,0,.74-.03,1.26-.1.52-.07.91-.22,1.18-.46v5c-.67.24-1.36.4-2.08.48-.72.08-1.43.12-2.12.12-1.01,0-1.95-.11-2.8-.32-.85-.21-1.6-.55-2.24-1.02s-1.14-1.07-1.5-1.82c-.36-.75-.54-1.65-.54-2.72v-9.24h-3.84v-4.8h3.84v-5.76h6v5.76h5.28v4.8Z"/>
    <path class="cls-7" d="M628.14,305.82v13.44h.08c.13-.37.36-.75.68-1.12.32-.37.71-.71,1.16-1,.45-.29.99-.53,1.6-.72s1.28-.28,2-.28c1.52,0,2.75.23,3.68.7.93.47,1.66,1.11,2.18,1.94.52.83.87,1.8,1.06,2.92.19,1.12.28,2.33.28,3.64v10.72h-6v-9.52c0-.56-.02-1.14-.06-1.74s-.16-1.15-.36-1.66c-.2-.51-.51-.92-.92-1.24-.41-.32-1.01-.48-1.78-.48s-1.4.14-1.88.42c-.48.28-.85.65-1.1,1.12-.25.47-.42.99-.5,1.58s-.12,1.2-.12,1.84v9.68h-6v-30.24h6Z"/>
    <path class="cls-7" d="M644.38,326.34c0-1.55.28-2.95.84-4.2.56-1.25,1.33-2.33,2.3-3.22.97-.89,2.12-1.58,3.44-2.06,1.32-.48,2.73-.72,4.22-.72s2.9.24,4.22.72c1.32.48,2.47,1.17,3.44,2.06.97.89,1.74,1.97,2.3,3.22.56,1.25.84,2.65.84,4.2s-.28,2.95-.84,4.2c-.56,1.25-1.33,2.33-2.3,3.22-.97.89-2.12,1.58-3.44,2.06-1.32.48-2.73.72-4.22.72s-2.9-.24-4.22-.72c-1.32-.48-2.47-1.17-3.44-2.06-.97-.89-1.74-1.97-2.3-3.22-.56-1.25-.84-2.65-.84-4.2ZM650.38,326.34c0,1.47.42,2.65,1.26,3.56.84.91,2.02,1.36,3.54,1.36s2.7-.45,3.54-1.36c.84-.91,1.26-2.09,1.26-3.56s-.42-2.65-1.26-3.56-2.02-1.36-3.54-1.36-2.7.45-3.54,1.36-1.26,2.09-1.26,3.56Z"/>
    <path class="cls-7" d="M669.5,316.62h6v3.12h.08c.64-1.2,1.4-2.1,2.28-2.7.88-.6,1.99-.9,3.32-.9.35,0,.69.01,1.04.04.35.03.67.08.96.16v5.48c-.43-.13-.85-.23-1.26-.3-.41-.07-.85-.1-1.3-.1-1.15,0-2.05.16-2.72.48-.67.32-1.18.77-1.54,1.34-.36.57-.59,1.26-.7,2.06-.11.8-.16,1.68-.16,2.64v8.12h-6v-19.44Z"/>
    <path class="cls-7" d="M685.38,310.5c0-.96.34-1.78,1.02-2.46.68-.68,1.5-1.02,2.46-1.02s1.78.34,2.46,1.02c.68.68,1.02,1.5,1.02,2.46s-.34,1.78-1.02,2.46-1.5,1.02-2.46,1.02-1.78-.34-2.46-1.02c-.68-.68-1.02-1.5-1.02-2.46ZM685.86,316.62h6v19.44h-6v-19.44Z"/>
    <path class="cls-7" d="M709.42,321.42h-5.28v6.48c0,.53.03,1.02.08,1.46.05.44.17.82.36,1.14.19.32.47.57.86.74.39.17.9.26,1.54.26.32,0,.74-.03,1.26-.1.52-.07.91-.22,1.18-.46v5c-.67.24-1.36.4-2.08.48-.72.08-1.43.12-2.12.12-1.01,0-1.95-.11-2.8-.32-.85-.21-1.6-.55-2.24-1.02s-1.14-1.07-1.5-1.82c-.36-.75-.54-1.65-.54-2.72v-9.24h-3.84v-4.8h3.84v-5.76h6v5.76h5.28v4.8Z"/>
    <path class="cls-7" d="M723.66,339.22c-.4,1.04-.79,1.96-1.16,2.76-.37.8-.85,1.47-1.42,2.02-.57.55-1.3.96-2.18,1.24-.88.28-2.04.42-3.48.42-1.55,0-3.04-.24-4.48-.72l.8-4.92c.91.4,1.84.6,2.8.6.67,0,1.21-.07,1.64-.22s.78-.36,1.06-.64c.28-.28.51-.62.7-1.02.19-.4.39-.87.6-1.4l.44-1.12-8.52-19.6h6.48l5,12.84h.08l4.28-12.84h6.16l-8.8,22.6Z"/>
  </g>
  <g>
    <path class="cls-3" d="M1.76,367.61h4.26v8.03l7.51-8.03h5.57l-8.6,8.98,9.34,10.35h-5.95l-7.86-9.17v9.17H1.76v-19.33Z"/>
    <path class="cls-3" d="M21.8,367.61h4.26v19.33h-4.26v-19.33Z"/>
    <path class="cls-3" d="M30.48,367.61h5.79l8.22,13.43h.05v-13.43h4.26v19.33h-5.57l-8.44-13.76h-.05v13.76h-4.26v-19.33Z"/>
    <path class="cls-3" d="M70.77,385.58c-1.26.66-2.57,1.13-3.93,1.42-1.37.29-2.76.44-4.18.44-1.51,0-2.9-.24-4.18-.71-1.27-.47-2.38-1.15-3.3-2.03-.93-.88-1.65-1.95-2.17-3.21s-.78-2.66-.78-4.2.26-2.95.78-4.2,1.24-2.33,2.17-3.21c.93-.88,2.03-1.56,3.3-2.03,1.27-.47,2.67-.71,4.18-.71s2.97.19,4.27.56c1.3.37,2.44,1.01,3.43,1.92l-3,3.28c-.58-.6-1.24-1.05-1.97-1.36-.73-.31-1.64-.46-2.73-.46-.91,0-1.73.16-2.47.46-.74.31-1.37.74-1.9,1.3-.53.56-.93,1.21-1.21,1.98-.28.76-.42,1.59-.42,2.48s.14,1.74.42,2.5c.28.76.69,1.41,1.21,1.97.53.55,1.16.99,1.9,1.3.74.31,1.56.46,2.47.46s1.73-.1,2.4-.31c.67-.21,1.21-.42,1.61-.64v-3.14h-3.47v-3.93h7.56v10.1Z"/>
    <path class="cls-3" d="M75.06,367.61h6.39c1.55,0,3.02.17,4.41.52s2.61.91,3.64,1.68c1.04.77,1.86,1.78,2.47,3.02.61,1.24.92,2.74.92,4.5,0,1.57-.3,2.94-.89,4.14-.59,1.19-1.39,2.19-2.39,3-1,.81-2.16,1.42-3.47,1.84-1.31.42-2.69.63-4.12.63h-6.96v-19.33ZM79.32,383.01h2.21c.98,0,1.9-.1,2.74-.3.85-.2,1.58-.53,2.2-1,.62-.46,1.11-1.07,1.46-1.83.35-.75.53-1.68.53-2.77,0-.95-.18-1.77-.53-2.47-.36-.7-.83-1.28-1.43-1.73-.6-.45-1.31-.8-2.12-1.02-.81-.23-1.66-.34-2.55-.34h-2.51v11.47Z"/>
    <path class="cls-3" d="M95.29,377.28c0-1.55.26-2.95.78-4.2s1.24-2.33,2.17-3.21c.93-.88,2.03-1.56,3.3-2.03,1.27-.47,2.67-.71,4.18-.71s2.9.24,4.18.71c1.27.47,2.38,1.15,3.3,2.03.93.88,1.65,1.95,2.17,3.21.52,1.26.78,2.66.78,4.2s-.26,2.95-.78,4.2c-.52,1.26-1.24,2.33-2.17,3.21-.93.88-2.03,1.56-3.3,2.03-1.27.47-2.67.71-4.18.71s-2.9-.24-4.18-.71c-1.27-.47-2.38-1.15-3.3-2.03-.93-.88-1.65-1.95-2.17-3.21s-.78-2.66-.78-4.2ZM99.71,377.28c0,.91.14,1.74.42,2.5.28.76.69,1.41,1.21,1.97.53.55,1.16.99,1.9,1.3.74.31,1.56.46,2.47.46s1.73-.15,2.47-.46c.74-.31,1.37-.74,1.9-1.3s.93-1.21,1.21-1.97c.28-.75.42-1.59.42-2.5s-.14-1.72-.42-2.48-.69-1.42-1.21-1.98c-.53-.55-1.16-.99-1.9-1.3-.74-.31-1.56-.46-2.47-.46s-1.73.16-2.47.46c-.74.31-1.37.74-1.9,1.3-.53.56-.93,1.21-1.21,1.98-.28.76-.42,1.59-.42,2.48Z"/>
    <path class="cls-3" d="M119.58,367.61h6.44l4.45,12.61h.05l4.48-12.61h6.42v19.33h-4.26v-14.82h-.05l-5.08,14.82h-3.25l-4.89-14.82h-.05v14.82h-4.26v-19.33Z"/>
    <path class="cls-3" d="M157.19,377.28c0-1.55.26-2.95.78-4.2s1.24-2.33,2.17-3.21c.93-.88,2.03-1.56,3.3-2.03,1.27-.47,2.67-.71,4.18-.71s2.9.24,4.18.71c1.27.47,2.38,1.15,3.3,2.03.93.88,1.65,1.95,2.17,3.21.52,1.26.78,2.66.78,4.2s-.26,2.95-.78,4.2c-.52,1.26-1.24,2.33-2.17,3.21-.93.88-2.03,1.56-3.3,2.03-1.27.47-2.67.71-4.18.71s-2.9-.24-4.18-.71c-1.27-.47-2.38-1.15-3.3-2.03-.93-.88-1.65-1.95-2.17-3.21s-.78-2.66-.78-4.2ZM161.61,377.28c0,.91.14,1.74.42,2.5.28.76.69,1.41,1.21,1.97.53.55,1.16.99,1.9,1.3.74.31,1.56.46,2.47.46s1.73-.15,2.47-.46c.74-.31,1.37-.74,1.9-1.3s.93-1.21,1.21-1.97c.28-.75.42-1.59.42-2.5s-.14-1.72-.42-2.48-.69-1.42-1.21-1.98c-.53-.55-1.16-.99-1.9-1.3-.74-.31-1.56-.46-2.47-.46s-1.73.16-2.47.46c-.74.31-1.37.74-1.9,1.3-.53.56-.93,1.21-1.21,1.98-.28.76-.42,1.59-.42,2.48Z"/>
    <path class="cls-3" d="M181.65,367.61h12.97v3.93h-8.71v3.93h8.05v3.93h-8.05v7.53h-4.26v-19.33Z"/>
    <path class="cls-3" d="M210.54,367.61h7.21c.84,0,1.68.06,2.53.18.85.12,1.61.35,2.28.71.67.35,1.22.85,1.64,1.49.42.64.63,1.48.63,2.54s-.3,2-.91,2.72c-.61.72-1.42,1.23-2.42,1.54v.05c.64.09,1.21.27,1.73.53s.96.6,1.34,1.01c.37.41.66.89.86,1.43s.3,1.13.3,1.75c0,1.02-.22,1.87-.66,2.55s-1,1.23-1.69,1.65c-.69.42-1.47.72-2.33.9-.87.18-1.72.27-2.58.27h-7.92v-19.33ZM214.8,375.34h3.08c.33,0,.65-.04.97-.11.32-.07.61-.19.86-.35.25-.16.46-.38.61-.66.15-.27.23-.6.23-.98s-.09-.73-.26-1c-.17-.26-.4-.47-.67-.61-.27-.15-.58-.25-.93-.31s-.68-.1-1.01-.1h-2.89v4.12ZM214.8,383.34h3.82c.33,0,.66-.04,1-.11.34-.07.64-.2.91-.38.27-.18.5-.42.67-.71s.26-.65.26-1.06c0-.46-.11-.82-.34-1.11s-.51-.5-.86-.64-.72-.25-1.12-.3c-.4-.05-.77-.08-1.12-.08h-3.22v4.4Z"/>
    <path class="cls-3" d="M235.14,367.61h3.52l8.41,19.33h-4.8l-1.67-4.09h-7.51l-1.61,4.09h-4.7l8.35-19.33ZM236.78,373.24l-2.35,6.01h4.72l-2.38-6.01Z"/>
    <path class="cls-3" d="M249.56,367.61h4.26v7.21h8.27v-7.21h4.26v19.33h-4.26v-8.35h-8.27v8.35h-4.26v-19.33Z"/>
    <path class="cls-3" d="M270.82,367.61h7.48c.98,0,1.92.1,2.8.29.88.19,1.66.51,2.32.96s1.19,1.05,1.58,1.8c.39.76.59,1.7.59,2.83,0,1.37-.36,2.53-1.07,3.48-.71.96-1.75,1.56-3.11,1.82l4.91,8.16h-5.1l-4.04-7.73h-2.1v7.73h-4.26v-19.33ZM275.08,375.61h2.51c.38,0,.79-.01,1.21-.04.43-.03.81-.11,1.16-.25.35-.14.63-.35.86-.64.23-.29.34-.7.34-1.23,0-.49-.1-.88-.3-1.17-.2-.29-.46-.51-.76-.67-.31-.15-.67-.26-1.07-.31s-.79-.08-1.17-.08h-2.78v4.4Z"/>
    <path class="cls-3" d="M295.42,367.61h3.52l8.41,19.33h-4.8l-1.67-4.09h-7.51l-1.61,4.09h-4.7l8.35-19.33ZM297.06,373.24l-2.35,6.01h4.72l-2.38-6.01Z"/>
    <path class="cls-3" d="M309.78,367.61h4.26v19.33h-4.26v-19.33Z"/>
    <path class="cls-3" d="M318.46,367.61h5.79l8.22,13.43h.05v-13.43h4.26v19.33h-5.57l-8.44-13.76h-.05v13.76h-4.26v-19.33Z"/>
  </g>
  <g>
    <path class="cls-7" d="M14.65,272.5c-3.54-.92-6.08-2.39-7.62-4.42-1.55-2.03-2.32-4.8-2.32-8.3,0-1.71.17-3.89.52-6.56.34-2.66.92-5.95,1.74-9.85l7.26,1.04c-.57,3.78-.94,6.38-1.1,7.81-.16,1.42-.24,2.74-.24,3.96,0,2.44.36,4.18,1.07,5.21s2.18,1.75,4.39,2.14c2.22.39,5.89.58,11.01.58,3.66,0,6.73-.15,9.21-.46,2.48-.31,5.29-.84,8.42-1.62l3.78,7.14c-3.62,1.79-7.01,3.02-10.16,3.69-3.15.67-6.9,1.01-11.25,1.01-6.26,0-11.16-.46-14.7-1.37ZM23.86,284.24l5.49-5.49,5.49,5.49-5.49,5.49-5.49-5.49ZM49.75,270.46c-2.87-2.28-4.3-5.41-4.3-9.39v-9.94l6.71-1.65.85.43v11.16c0,.81.26,1.44.79,1.89.53.45,1.39.75,2.59.92,1.2.16,2.88.24,5.03.24l1.34.61v8.54l-1.34.61c-4.92,0-8.81-1.14-11.68-3.42Z"/>
    <path class="cls-7" d="M56.8,284.24l5.49-5.49,5.49,5.49-5.49,5.49-5.49-5.49ZM60.09,273.26v-8.54l1.34-.61c2.36,0,4.17-.12,5.43-.37s2.14-.64,2.65-1.19.76-1.35.76-2.41c0-1.46-.59-6.28-1.77-14.46l7.56-1.1.85.43c.33,3.42.57,6.4.73,8.94.16,2.54.24,4.44.24,5.7,0,5-1.28,8.62-3.84,10.86-2.56,2.24-6.77,3.35-12.63,3.35l-1.34-.61ZM67.29,284.24l5.49-5.49,5.49,5.49-5.49,5.49-5.49-5.49Z"/>
    <path class="cls-7" d="M88.86,274.54c2.26-1.71,3.39-3.54,3.39-5.49s-.96-8.28-2.87-19.22l7.2-1.59.85.43c1.63,8.99,2.44,15.6,2.44,19.82,0,3.9-.66,7.1-1.98,9.58-1.32,2.48-3.41,4.41-6.25,5.79s-6.67,2.32-11.47,2.81l-1.65-7.26c4.64-1.55,8.08-3.17,10.34-4.88Z"/>
    <path class="cls-7" d="M109.99,271.34c-2.28-1.69-3.42-4.34-3.42-7.96v-5.98h7.32v3.66c0,.77.22,1.37.67,1.8.45.43,1.21.74,2.29.95,1.08.2,2.59.3,4.54.3,3.46,0,5.92-.39,7.38-1.16,1.46-.77,2.4-2.07,2.81-3.9l4.39,5.55c-.73,3.09-2.33,5.41-4.79,6.95-2.46,1.55-5.93,2.32-10.4,2.32-4.92,0-8.52-.84-10.8-2.53ZM133.84,270.98c-2.36-1.93-4.35-5.19-5.98-9.79l-6.59-18.42,7.26-3.05.85.43,5.55,15.68c1.1,3.05,2.23,5.2,3.39,6.44,1.16,1.24,2.78,1.86,4.85,1.86l1.34.61v8.54l-1.34.61c-3.86,0-6.97-.96-9.33-2.9Z"/>
    <path class="cls-7" d="M141.83,273.26v-8.54l1.34-.61c2.32,0,4.07-.08,5.25-.24,1.18-.16,2-.46,2.47-.88.47-.43.7-1.07.7-1.92v-9.94l6.71-1.65.85.43v11.16c0,.85.23,1.49.7,1.92.47.43,1.29.72,2.47.88,1.18.16,2.93.24,5.25.24l1.34.61v8.54l-1.34.61c-4.88,0-8.61-1.12-11.19-3.35-2.58-2.24-3.87-5.39-3.87-9.46h5.73c0,4.07-1.29,7.22-3.87,9.46-2.58,2.24-6.31,3.35-11.19,3.35l-1.34-.61ZM144.64,239.1l5.49-5.49,5.49,5.49-5.49,5.49-5.49-5.49ZM155.13,239.1l5.49-5.49,5.49,5.49-5.49,5.49-5.49-5.49Z"/>
    <path class="cls-7" d="M166.23,273.26v-8.54l1.34-.61c2.16,0,3.77-.08,4.85-.24,1.08-.16,1.82-.46,2.23-.88.41-.43.61-1.07.61-1.92l-.37-30.87,8.3-2.07.85.43-.06,28.61c0,5.86-1.3,10.11-3.9,12.75-2.6,2.64-6.77,3.96-12.5,3.96l-1.34-.61Z"/>
    <path class="cls-7" d="M191.37,230.2l8.3-2.07.85.43-.61,45.32h-7.93l-.61-43.68Z"/>
    <path class="cls-7" d="M217.47,277.5c2.52-1.12,4.3-2.47,5.34-4.06s1.56-3.64,1.56-6.16c0-2.11-.3-4.07-.88-5.86-.59-1.79-1.37-3.21-2.35-4.27-.98-1.06-2.03-1.59-3.17-1.59-.9,0-1.74.3-2.53.92s-1.44,1.4-1.95,2.38c-.51.98-.76,2.01-.76,3.11,0,1.18.39,2.03,1.16,2.56.77.53,2.13.79,4.09.79,1.14,0,2.55-.07,4.24-.21s2.96-.29,3.81-.46v8.54c-1.1.16-2.55.32-4.36.46-1.81.14-3.24.21-4.3.21-3.66,0-6.47-.99-8.42-2.96s-2.93-4.75-2.93-8.33c0-2.76.56-5.34,1.68-7.72,1.12-2.38,2.64-4.28,4.57-5.7,1.93-1.42,4.04-2.13,6.31-2.13,2.44,0,4.61.83,6.5,2.5,1.89,1.67,3.35,4.03,4.39,7.08s1.56,6.61,1.56,10.67c0,4.84-.72,8.59-2.17,11.25-1.44,2.66-3.78,4.64-7.02,5.92-3.23,1.28-7.86,2.23-13.88,2.84l-1.4-6.47c4.76-1.1,8.4-2.21,10.92-3.32Z"/>
    <path class="cls-7" d="M249.32,292.97v-21.41c0-3.21.64-5.66,1.92-7.35s3.12-2.53,5.52-2.53c2.32.9,4.68,1.54,7.08,1.92,2.4.39,4.51.58,6.34.58,1.22,0,2.13-.16,2.75-.49.61-.33.92-.89.92-1.71,0-1.02-.27-2.07-.79-3.17-.53-1.1-1.22-2-2.07-2.71-.85-.71-1.73-1.07-2.62-1.07-1.42,0-2.68.84-3.78,2.53-1.1,1.69-2.2,4.5-3.29,8.45l-6.65-2.44c1.26-5.69,3-9.97,5.21-12.84,2.22-2.87,4.99-4.3,8.33-4.3,2.11,0,4.09.64,5.92,1.92s3.39,3.14,4.7,5.58l2.44,4.57c.93,1.79,1.7,3.05,2.29,3.78.59.73,1.26,1.22,2.01,1.46.75.24,1.9.37,3.45.37l1.34.61v8.54l-1.34.61c-2.64,0-4.81-.41-6.5-1.22s-3.02-2.16-4-4.03c-.81,1.75-2,3.06-3.57,3.93-1.57.88-3.35,1.31-5.34,1.31-2.36,0-4.97-.29-7.84-.88-2.87-.59-5.76-1.56-8.69-2.9l3.35-5,1.46,27.21-7.69,1.1-.85-.43Z"/>
    <path class="cls-7" d="M284.33,284.24l5.49-5.49,5.49,5.49-5.49,5.49-5.49-5.49ZM287.62,273.26v-8.54l1.34-.61c2.32,0,4.07-.08,5.25-.24,1.18-.16,2-.46,2.47-.88.47-.43.7-1.07.7-1.92v-9.94l6.71-1.65.85.43v11.16c0,.85.23,1.49.7,1.92.47.43,1.29.72,2.47.88,1.18.16,2.93.24,5.25.24l1.34.61v8.54l-1.34.61c-4.88,0-8.61-1.12-11.19-3.35-2.58-2.24-3.87-5.39-3.87-9.46h5.73c0,4.07-1.29,7.22-3.87,9.46-2.58,2.24-6.31,3.35-11.19,3.35l-1.34-.61ZM294.82,284.24l5.49-5.49,5.49,5.49-5.49,5.49-5.49-5.49Z"/>
    <path class="cls-7" d="M312.02,273.26v-8.54l1.34-.61c2.28,0,3.97-.08,5.09-.24,1.12-.16,1.89-.46,2.32-.88.43-.43.64-1.07.64-1.92l-.37-30.74,8.3-2.2.85.43-.37,32.51c0,.85.2,1.49.61,1.92.41.43,1.16.72,2.26.88,1.1.16,2.79.24,5.06.24l1.34.61v8.54l-1.34.61c-4.88,0-8.61-1.12-11.19-3.35-2.58-2.24-3.87-5.39-3.87-9.46h5.73c0,4.07-1.29,7.22-3.87,9.46-2.58,2.24-6.31,3.35-11.19,3.35l-1.34-.61Z"/>
    <path class="cls-7" d="M336.42,273.26v-8.54l1.34-.61c5.25,0,10.02-.39,14.33-1.16,4.31-.77,7.7-1.83,10.16-3.17,2.46-1.34,3.69-2.83,3.69-4.45,0-1.06-.56-1.79-1.68-2.2-1.12-.41-2.94-.61-5.46-.61-2.07,0-4.15.16-6.22.49s-4.84.92-8.3,1.77l2.44-5.73,4.82,6.04c2.16,2.68,4.21,4.64,6.16,5.86s4.46,2.05,7.53,2.5c3.07.45,7.53.67,13.39.67l1.34.61v8.54l-1.34.61c-5.61,0-10.39-.46-14.33-1.37-3.95-.92-7.39-2.39-10.34-4.42-2.95-2.03-5.7-4.82-8.27-8.36l-2.93-4.03,1.89-9.64c2.72-.69,5.26-1.21,7.59-1.56,2.34-.34,4.52-.52,6.56-.52,4.72,0,8.36.88,10.92,2.62,2.56,1.75,3.84,4.25,3.84,7.5,0,3.66-1.57,7-4.7,10-3.13,3.01-7.42,5.39-12.87,7.14-5.45,1.75-11.53,2.62-18.24,2.62l-1.34-.61Z"/>
    <path class="cls-7" d="M377.29,273.26v-8.54l1.34-.61c2.32,0,4.07-.08,5.25-.24,1.18-.16,2-.46,2.47-.88.47-.43.7-1.07.7-1.92v-9.94l6.71-1.65.85.43v11.16c0,.85.23,1.49.7,1.92.47.43,1.29.72,2.47.88,1.18.16,2.93.24,5.25.24l1.34.61v8.54l-1.34.61c-4.88,0-8.61-1.12-11.19-3.35-2.58-2.24-3.87-5.39-3.87-9.46h5.73c0,4.07-1.29,7.22-3.87,9.46-2.58,2.24-6.31,3.35-11.19,3.35l-1.34-.61ZM380.1,239.1l5.49-5.49,5.49,5.49-5.49,5.49-5.49-5.49ZM390.59,239.1l5.49-5.49,5.49,5.49-5.49,5.49-5.49-5.49Z"/>
    <path class="cls-7" d="M401.69,273.26v-8.54l1.34-.61c2.16,0,3.77-.08,4.85-.24,1.08-.16,1.82-.46,2.23-.88.41-.43.61-1.07.61-1.92l-.37-30.87,8.3-2.07.85.43-.06,28.61c0,5.86-1.3,10.11-3.9,12.75-2.6,2.64-6.77,3.96-12.5,3.96l-1.34-.61Z"/>
    <path class="cls-7" d="M426.83,230.2l8.3-2.07.85.43-.61,45.32h-7.93l-.61-43.68Z"/>
    <path class="cls-7" d="M458.42,271.68c-2.36-1.87-3.54-4.41-3.54-7.62,0-3.01,1.09-6.12,3.26-9.33s5.42-6.63,9.73-10.25l4.27,4.57c-2.64,2.73-4.59,4.79-5.83,6.19-1.24,1.4-2.16,2.6-2.75,3.6-.59,1-.88,1.92-.88,2.78,0,1.06.52,1.88,1.56,2.47,1.04.59,2.47.88,4.3.88s3.25-.29,4.27-.88c1.02-.59,1.53-1.41,1.53-2.47,0-.89-.35-1.87-1.04-2.93-.69-1.06-1.86-2.46-3.51-4.21-1.65-1.75-4.24-4.33-7.78-7.75l5.25-5.79.85.43c3.58,3.42,6.34,6.32,8.3,8.72,1.95,2.4,3.33,4.59,4.12,6.56.79,1.97,1.19,4.04,1.19,6.19,0,3.86-1.12,6.77-3.36,8.72-2.24,1.95-5.51,2.93-9.82,2.93s-7.77-.94-10.13-2.81ZM457.81,231.78l5.49-5.49,5.49,5.49-5.49,5.49-5.49-5.49ZM468.31,231.78l5.49-5.49,5.49,5.49-5.49,5.49-5.49-5.49Z"/>
    <path class="cls-7" d="M490.48,271.43c-2.58-1.63-3.87-4.07-3.87-7.32v-6.1h7.32v3.48c0,.65.24,1.17.73,1.56.49.39,1.26.66,2.32.82,1.06.16,2.48.24,4.27.24,1.67,0,3.04-.07,4.12-.21,1.08-.14,1.88-.36,2.41-.64.53-.28.79-.67.79-1.16,0-1.5-.51-3.14-1.53-4.91-1.02-1.77-2.5-3.53-4.45-5.28-1.95-1.75-4.27-3.31-6.95-4.7l-.43-.85,3.78-7.26c5.65,2.72,9.88,5.96,12.69,9.7,2.81,3.74,4.21,7.97,4.21,12.69,0,4.35-1.22,7.5-3.66,9.46-2.44,1.95-6.1,2.93-10.98,2.93-4.6,0-8.18-.81-10.77-2.44Z"/>
    <path class="cls-7" d="M531.01,277.5c2.52-1.12,4.3-2.47,5.34-4.06s1.56-3.64,1.56-6.16c0-2.11-.3-4.07-.88-5.86-.59-1.79-1.37-3.21-2.35-4.27-.98-1.06-2.03-1.59-3.17-1.59-.9,0-1.74.3-2.53.92s-1.44,1.4-1.95,2.38c-.51.98-.76,2.01-.76,3.11,0,1.18.37,1.93,1.1,2.26.73.33,2.11.49,4.15.49h8.84l2.07-.61h5.79l1.34.61v8.54l-1.34.61h-5.79l-2.07-.61h-9.46c-3.62,0-6.42-.91-8.39-2.71-1.97-1.81-2.96-4.46-2.96-7.96,0-2.76.56-5.34,1.68-7.72,1.12-2.38,2.64-4.28,4.57-5.7,1.93-1.42,4.04-2.13,6.31-2.13,2.44,0,4.61.83,6.5,2.5,1.89,1.67,3.35,4.03,4.39,7.08s1.56,6.61,1.56,10.67c0,4.84-.72,8.59-2.17,11.25-1.44,2.66-3.78,4.64-7.02,5.92-3.23,1.28-7.86,2.23-13.88,2.84l-1.4-6.47c4.76-1.1,8.4-2.21,10.92-3.32Z"/>
    <path class="cls-7" d="M546.87,273.26v-8.54l1.34-.61c6.67,0,12.35-.49,17.05-1.46,4.7-.98,8.57-2.48,11.62-4.51l2.07,3.23-8.3-5.06c-1.63-1.02-3.15-1.8-4.58-2.35-1.42-.55-2.6-.82-3.54-.82s-2,.38-3.08,1.13c-1.08.75-2.43,2.04-4.06,3.87l-5.43-4.88c2.36-3.01,4.53-5.21,6.53-6.59,1.99-1.38,4-2.07,6.04-2.07,1.46,0,3.13.37,5,1.1,1.87.73,4.19,1.93,6.95,3.6l10.49,6.34.43.85-3.78,6.95c-3.82,2.68-7.37,4.77-10.64,6.25-3.27,1.49-6.71,2.55-10.31,3.2s-7.76.98-12.47.98l-1.34-.61ZM556.76,284.24l5.49-5.49,5.49,5.49-5.49,5.49-5.49-5.49Z"/>
    <path class="cls-7" d="M606.47,267.68c-2.24-1.69-3.35-4.18-3.35-7.47,0-3.09.92-5.89,2.78-8.39,1.85-2.5,4.4-4.49,7.66-5.98,3.25-1.48,6.87-2.31,10.86-2.47v8.97c-2.16,0-4.3.3-6.43.88-2.14.59-3.87,1.36-5.22,2.32-1.34.96-2.01,1.92-2.01,2.9,0,.77.52,1.4,1.55,1.89,1.04.49,2.27.73,3.69.73.98,0,2.22-.12,3.72-.37,1.5-.24,3.07-.57,4.7-.98v9.15c-1.38.45-2.77.78-4.15,1.01-1.38.22-2.81.33-4.27.33-4.11,0-7.28-.84-9.52-2.53ZM613,230.56l5.49-5.49,5.49,5.49-5.49,5.49-5.49-5.49ZM624.31,271.1c-2.83-1.85-4.24-4.38-4.24-7.59v-22.75l6.71-1.65.85.43v21.53c0,.85.23,1.49.7,1.92.47.43,1.29.72,2.47.88,1.18.16,2.93.24,5.25.24l1.34.61v8.54l-1.34.61c-5,0-8.92-.92-11.74-2.78ZM623.49,230.56l5.49-5.49,5.49,5.49-5.49,5.49-5.49-5.49Z"/>
    <path class="cls-7" d="M634.71,273.26v-8.54l1.34-.61c2.32,0,4.07-.08,5.25-.24,1.18-.16,2-.46,2.47-.88.47-.43.7-1.07.7-1.92v-9.94l6.71-1.65.85.43v11.16c0,.85.23,1.49.7,1.92.47.43,1.29.72,2.47.88,1.18.16,2.93.24,5.25.24l1.34.61v8.54l-1.34.61c-4.88,0-8.61-1.12-11.19-3.35-2.58-2.24-3.87-5.39-3.87-9.46h5.73c0,4.07-1.29,7.22-3.87,9.46-2.58,2.24-6.31,3.35-11.19,3.35l-1.34-.61ZM640.33,244.17l.67-3.96,14.33-5.98.85.43-.67,3.96-14.33,5.98-.85-.43ZM642.86,237.58c-.96-1.3-1.43-2.83-1.43-4.58,0-2.15.65-3.9,1.95-5.25,1.3-1.34,2.99-2.01,5.06-2.01.98,0,1.92.17,2.84.52.92.35,1.94.93,3.08,1.74l-1.77,3.17c-1.59-.85-2.97-1.28-4.15-1.28-1.02,0-1.83.29-2.44.85-.61.57-.92,1.32-.92,2.26,0,1.26.54,2.3,1.62,3.11,1.08.81,2.45,1.22,4.12,1.22l-3.84,3.17c-1.79-.65-3.16-1.63-4.12-2.93Z"/>
    <path class="cls-7" d="M655.82,284.24l5.49-5.49,5.49,5.49-5.49,5.49-5.49-5.49ZM659.11,273.26v-8.54l1.34-.61c2.32,0,4.07-.08,5.25-.24,1.18-.16,2-.46,2.47-.88.47-.43.7-1.07.7-1.92v-9.94l6.71-1.65.85.43v11.16c0,.85.23,1.49.7,1.92.47.43,1.29.72,2.47.88,1.18.16,2.93.24,5.25.24l1.34.61v8.54l-1.34.61c-4.88,0-8.61-1.12-11.19-3.35-2.58-2.24-3.87-5.39-3.87-9.46h5.73c0,4.07-1.29,7.22-3.87,9.46-2.58,2.24-6.31,3.35-11.19,3.35l-1.34-.61ZM666.31,284.24l5.49-5.49,5.49,5.49-5.49,5.49-5.49-5.49Z"/>
    <path class="cls-7" d="M695.07,269.76c-4.17-2.75-6.25-6.6-6.25-11.56,0-2.52.57-4.88,1.71-7.08,1.14-2.2,2.64-3.93,4.51-5.21,1.87-1.28,3.86-1.92,5.98-1.92s4.16.66,6.01,1.98c1.85,1.32,3.31,3.07,4.39,5.25,1.08,2.18,1.62,4.5,1.62,6.98,0,5.04-2.43,8.92-7.29,11.62-4.86,2.71-11.82,4.06-20.89,4.06l-1.34-.61v-8.54l1.34-.61c5.29,0,9.46-.19,12.5-.58s5.26-1.01,6.62-1.86c1.36-.85,2.04-2.01,2.04-3.48,0-.93-.25-1.9-.76-2.9-.51-1-1.15-1.83-1.92-2.5-.77-.67-1.55-1.01-2.32-1.01-.81,0-1.62.32-2.41.95-.79.63-1.46,1.44-1.98,2.44-.53,1-.79,2-.79,3.02,0,2.2,1.37,3.82,4.12,4.88,2.75,1.06,6.96,1.59,12.66,1.59,2.16,0,3.79-.09,4.91-.27s1.91-.49,2.38-.92c.47-.43.7-1.07.7-1.92,0-1.91-.81-3.85-2.44-5.83-1.63-1.97-3.93-3.73-6.92-5.28-2.99-1.54-6.4-2.66-10.22-3.35l1.4-6.95.85-.43c5.04.98,9.39,2.63,13.05,4.97,3.66,2.34,6.45,5.15,8.36,8.42,1.91,3.27,2.87,6.78,2.87,10.52,0,2.52-.49,4.52-1.46,6.01-.98,1.49-2.55,2.56-4.73,3.23-2.18.67-5.09,1.01-8.75,1.01-7.52,0-13.37-1.37-17.54-4.12Z"/>
  </g>
  <g>
    <path class="cls-3" d="M381.21,389.04c-1.46-.68-2.58-1.68-3.35-3.01-.77-1.33-1.16-2.94-1.16-4.85,0-1.02.13-2.18.39-3.47.26-1.29.73-3.06,1.41-5.3l3.37.82c-.45,1.66-.8,3.16-1.04,4.5-.24,1.35-.36,2.42-.36,3.21,0,1.52.49,2.65,1.48,3.38.99.74,2.51,1.1,4.57,1.1s3.58-.37,4.56-1.1c.97-.74,1.46-1.86,1.46-3.38,0-.59-.1-1.65-.31-3.2l-.75-5.17,3.37-.75.44.24.68,4.79c.09.59.28,1.03.56,1.33.28.29.75.5,1.41.61.66.11,1.61.17,2.86.17l.75.34v3.94l-.75.34c-1.54,0-2.79-.21-3.74-.65s-1.43-1.02-1.43-1.77l.65-.24c0,1.95-.37,3.6-1.12,4.96-.75,1.36-1.85,2.39-3.3,3.09-1.45.7-3.23,1.05-5.34,1.05s-3.86-.34-5.32-1.02ZM383.78,369.36l2.75-2.79,2.75,2.79-2.75,2.75-2.75-2.75Z"/>
    <path class="cls-3" d="M400.07,383.26v-3.94l.75-.34h7.21l.75.34v3.94l-.75.34h-7.21l-.75-.34Z"/>
    <path class="cls-3" d="M407.28,383.26v-3.94l.75-.34h7.21l.75.34v3.94l-.75.34h-7.21l-.75-.34Z"/>
    <path class="cls-3" d="M414.48,383.26v-3.94l.75-.34h7.21l.75.34v3.94l-.75.34h-7.21l-.75-.34Z"/>
    <path class="cls-3" d="M419.96,389.08l2.75-2.75,2.75,2.75-2.75,2.75-2.75-2.75ZM421.69,383.26v-3.94l.75-.34c1.34,0,2.35-.06,3.04-.19s1.17-.35,1.43-.66.39-.79.39-1.43c0-.82-.31-3.54-.92-8.16l3.54-.54.44.24c.18,1.75.32,3.37.41,4.86.09,1.5.14,2.6.14,3.3,0,2.54-.66,4.38-1.99,5.51-1.33,1.13-3.48,1.7-6.48,1.7l-.75-.34ZM425.53,389.08l2.75-2.75,2.75,2.75-2.75,2.75-2.75-2.75Z"/>
    <path class="cls-3" d="M437.33,384.52c1.25-1.02,1.87-2.13,1.87-3.33s-.51-4.67-1.53-10.4l3.37-.75.44.24,1.05,6.6c.09.59.28,1.03.56,1.33.28.29.74.5,1.38.61.63.11,1.59.17,2.86.17l.75.34v3.94l-.75.34c-1.18,0-2.25-.12-3.21-.36-.96-.24-1.72-.56-2.28-.97-.56-.41-.83-.87-.83-1.39h1.8c0,2.04-.35,3.73-1.05,5.07-.7,1.34-1.8,2.4-3.3,3.18s-3.47,1.32-5.92,1.62l-.82-3.43c2.49-.84,4.36-1.77,5.61-2.79Z"/>
    <path class="cls-3" d="M447.26,383.26v-3.94l.75-.34h7.21l.75.34v3.94l-.75.34h-7.21l-.75-.34Z"/>
    <path class="cls-3" d="M454.47,383.26v-3.94l.75-.34h7.21l.75.34v3.94l-.75.34h-7.21l-.75-.34Z"/>
    <path class="cls-3" d="M461.67,383.26v-3.94l.75-.34c3.31,0,6.33-.29,9.06-.87,2.73-.58,5.11-1.44,7.12-2.6l1.16,1.6-5.54-3.33c-.91-.57-1.75-1-2.52-1.29-.77-.29-1.42-.44-1.94-.44s-1.07.2-1.65.59-1.31,1.07-2.19,2.02l-2.58-2.35c1.2-1.47,2.32-2.56,3.37-3.26,1.04-.7,2.1-1.05,3.16-1.05.75,0,1.63.19,2.63.58,1.01.39,2.2,1,3.59,1.84l6.26,3.77.24.44-1.77,3.5c-2.18,1.38-4.2,2.46-6.09,3.25-1.88.78-3.8,1.35-5.76,1.7-1.96.35-4.14.53-6.54.53l-.75-.34ZM479.56,382.58c-1.41-.68-2.61-1.62-3.6-2.82l2.86-1.87c.82.36,1.62.63,2.4.82s1.69.27,2.74.27l.75.34v3.94l-.75.34c-1.52,0-2.98-.34-4.39-1.02Z"/>
    <path class="cls-3" d="M483.2,383.26v-3.94l.75-.34h7.21l.75.34v3.94l-.75.34h-7.21l-.75-.34Z"/>
    <path class="cls-3" d="M490.41,383.26v-3.94l.75-.34h7.21l.75.34v3.94l-.75.34h-7.21l-.75-.34Z"/>
    <path class="cls-3" d="M497.61,383.26v-3.94l.75-.34h7.21l.75.34v3.94l-.75.34h-7.21l-.75-.34Z"/>
    <path class="cls-3" d="M504.82,383.26v-3.94l.75-.34h7.21l.75.34v3.94l-.75.34h-7.21l-.75-.34Z"/>
    <path class="cls-3" d="M512.03,383.26v-3.94l.75-.34c1.29,0,2.27-.04,2.92-.14.66-.09,1.12-.27,1.39-.53.27-.26.41-.64.41-1.14v-5.68l3.13-.78.44.24v6.22c0,.5.13.88.39,1.14.26.26.72.44,1.38.53.66.09,1.64.14,2.96.14l.75.34v3.94l-.75.34c-2.61,0-4.57-.53-5.9-1.6s-1.99-2.6-1.99-4.59h2.75c0,1.99-.67,3.52-2.01,4.59-1.34,1.07-3.3,1.6-5.88,1.6l-.75-.34ZM513.08,389.08l2.75-2.75,2.75,2.75-2.75,2.79-2.75-2.79Z"/>
    <path class="cls-3" d="M525.05,383.26v-3.94l.75-.34h7.21l.75.34v3.94l-.75.34h-7.21l-.75-.34Z"/>
    <path class="cls-3" d="M532.26,383.26v-3.94l.75-.34h7.21l.75.34v3.94l-.75.34h-7.21l-.75-.34Z"/>
    <path class="cls-3" d="M539.47,383.26v-3.94l.75-.34c1.22,0,2.14-.04,2.75-.14.61-.09,1.04-.27,1.28-.53.24-.26.36-.64.36-1.14l-.2-18.12,3.84-.95.44.24-.03,17.41c0,2.77-.68,4.77-2.04,6-1.36,1.24-3.49,1.85-6.39,1.85l-.75-.34Z"/>
    <path class="cls-3" d="M553.24,359.06l3.84-.95.44.24-.24,25.26h-3.74l-.31-24.55Z"/>
    <path class="cls-3" d="M570.37,380c-1.18-.88-1.77-2.18-1.77-3.88,0-1.61.49-3.07,1.48-4.39.99-1.31,2.36-2.37,4.11-3.16,1.76-.79,3.7-1.26,5.83-1.39v4.35c-1.29,0-2.55.18-3.77.53-1.22.35-2.21.82-2.94,1.41-.74.59-1.1,1.21-1.1,1.87,0,.52.29.92.87,1.19.58.27,1.33.41,2.26.41.59,0,1.28-.06,2.06-.17.78-.11,1.66-.28,2.64-.51v4.35c-.91.25-1.73.43-2.47.54-.74.11-1.48.17-2.23.17-2.13,0-3.79-.44-4.96-1.33ZM574.15,360.48l2.75-2.79,2.75,2.79-2.75,2.75-2.75-2.75ZM580.2,382.18c-1.43-.95-2.14-2.32-2.14-4.11v-12.34l3.13-.78.44.24v12c0,.5.13.88.39,1.14.26.26.73.44,1.39.53.67.09,1.66.14,2.97.14l.75.34v3.94l-.75.34c-2.7,0-4.76-.48-6.19-1.43ZM579.72,360.48l2.75-2.79,2.75,2.79-2.75,2.75-2.75-2.75Z"/>
    <path class="cls-3" d="M585.64,383.26v-3.94l.75-.34h7.21l.75.34v3.94l-.75.34h-7.21l-.75-.34Z"/>
    <path class="cls-3" d="M592.85,383.26v-3.94l.75-.34h7.21l.75.34v3.94l-.75.34h-7.21l-.75-.34Z"/>
    <path class="cls-3" d="M600.06,383.26v-3.94l.75-.34h7.21l.75.34v3.94l-.75.34h-7.21l-.75-.34Z"/>
    <path class="cls-3" d="M607.26,383.26v-3.94l.75-.34h1.29c2.15,0,3.79-.05,4.9-.15,1.11-.1,1.89-.28,2.33-.54.44-.26.66-.63.66-1.11h3.71c0,1.52-.39,2.75-1.17,3.69s-2.02,1.63-3.71,2.07c-1.69.44-3.93.66-6.71.66h-1.29l-.75-.34ZM622.48,383.15c-1.01-.31-1.94-.8-2.79-1.48-.85-.68-1.71-1.62-2.57-2.82l-8.16-11.08v-4.35l14.01-5.3.44.24v3.91l-13.23,5,1.67-2.96,8.13,11.08c.73,1.02,1.37,1.77,1.94,2.26.57.49,1.17.83,1.8,1.04s1.44.31,2.41.31l.75.34v3.94l-.75.34c-1.43,0-2.65-.15-3.66-.46Z"/>
    <path class="cls-3" d="M625.39,383.26v-3.94l.75-.34h7.21l.75.34v3.94l-.75.34h-7.21l-.75-.34Z"/>
    <path class="cls-3" d="M632.59,383.26v-3.94l.75-.34h7.21l.75.34v3.94l-.75.34h-7.21l-.75-.34Z"/>
    <path class="cls-3" d="M639.8,383.26v-3.94l.75-.34c1.27,0,2.21-.04,2.84-.14.62-.09,1.06-.27,1.31-.53.25-.26.37-.64.37-1.14l-.2-18.09,3.84-.99.44.24-.14,18.84c0,.5.12.88.36,1.14.24.26.67.44,1.31.53.63.09,1.6.14,2.89.14l.75.34v3.94l-.75.34c-2.61,0-4.57-.53-5.9-1.6s-1.99-2.6-1.99-4.59h2.75c0,1.99-.67,3.52-2.01,4.59-1.34,1.07-3.3,1.6-5.88,1.6l-.75-.34Z"/>
    <path class="cls-3" d="M652.82,383.26v-3.94l.75-.34h7.21l.75.34v3.94l-.75.34h-7.21l-.75-.34Z"/>
    <path class="cls-3" d="M660.03,383.26v-3.94l.75-.34h7.21l.75.34v3.94l-.75.34h-7.21l-.75-.34Z"/>
    <path class="cls-3" d="M667.24,383.26v-3.94l.75-.34h7.21l.75.34v3.94l-.75.34h-7.21l-.75-.34Z"/>
    <path class="cls-3" d="M682.9,382.74c-1.37-.65-2.4-1.44-3.08-2.4l2.11-3.6c.5.73,1.23,1.31,2.21,1.75.97.44,2.03.66,3.16.66.77,0,1.34-.12,1.7-.37.36-.25.54-.67.54-1.26,0-.66-.15-1.33-.46-2.01-.31-.68-.7-1.24-1.19-1.68-.49-.44-.98-.66-1.48-.66-1.04,0-2.19,1.07-3.43,3.2l-2.48,4.18c-.68,1.13-1.42,1.93-2.23,2.38-.8.45-1.83.68-3.08.68l-.75-.34v-3.94l.75-.34c.79,0,1.4-.11,1.82-.34.42-.23.83-.67,1.24-1.33l2.48-4.18c.79-1.36,1.68-2.39,2.65-3.08.97-.69,1.98-1.04,3.03-1.04,1.18,0,2.25.39,3.21,1.17.96.78,1.77,1.9,2.43,3.35l1.05,2.28c.43.95.83,1.64,1.19,2.07.36.43.79.72,1.27.87s1.21.22,2.16.22l.75.34v3.94l-.75.34c-1.5,0-2.7-.22-3.6-.66-.91-.44-1.63-1.16-2.18-2.16-.41.95-1.04,1.68-1.89,2.18s-1.84.75-2.97.75c-1.43,0-2.83-.32-4.2-.97Z"/>
    <path class="cls-3" d="M696.99,383.26v-3.94l.75-.34h7.21l.75.34v3.94l-.75.34h-7.21l-.75-.34Z"/>
    <path class="cls-3" d="M704.2,383.26v-3.94l.75-.34h7.21l.75.34v3.94l-.75.34h-7.21l-.75-.34Z"/>
    <path class="cls-3" d="M719.79,382.6c-1.51-.74-2.73-1.71-3.66-2.91l2.07-3.6c.75.95,1.65,1.7,2.72,2.24,1.06.54,2.18.82,3.33.82.73,0,1.25-.16,1.58-.48.33-.32.49-.78.49-1.39s-.14-1.24-.41-1.89c-.27-.65-.64-1.18-1.1-1.6-.46-.42-.95-.63-1.45-.63-1.04,0-2.19,1.07-3.43,3.2l-2.48,4.18c-.68,1.13-1.42,1.93-2.23,2.38-.8.45-1.83.68-3.08.68l-.75-.34v-3.94l.75-.34c.79,0,1.4-.11,1.82-.34.42-.23.83-.67,1.24-1.33l2.48-4.18c.79-1.36,1.68-2.39,2.65-3.08.97-.69,1.98-1.04,3.03-1.04,1.16,0,2.23.37,3.21,1.11.99.74,1.77,1.73,2.35,2.99.58,1.26.87,2.65.87,4.16,0,2.04-.49,3.62-1.48,4.74s-2.34,1.68-4.06,1.68c-1.47,0-2.96-.37-4.47-1.11Z"/>
  </g>
  <g id="_Radial_Repeat_" data-name="&amp;lt;Radial Repeat&amp;gt;">
    <path class="cls-6" d="M416.92,21.23s36.02,22,36.11,55.99c.09,35.29-27.77,37.74-32.81,36.36-.8-.22,24.82-16.24,19.39-37.72-2.46-9.72-6.85-6.36-9.41,2.38-2.21,7.57-1.85,14.98-8.01,11.41-6.24-3.62-7.62-22.05-1.72-38.8,7.34-20.85-3.54-29.62-3.54-29.62"/>
  </g>
  <g id="_Radial_Repeat_-2" data-name="&amp;lt;Radial Repeat&amp;gt;">
    <path class="cls-2" d="M447.03,117.23s-9.79,41.06-42.09,51.64c-33.53,10.99-44.47-14.75-44.72-19.97-.04-.83,23.12,18.59,41.86,6.78,8.49-5.35,3.94-8.49-5.17-8.21-7.88.24-14.82,2.87-13.33-4.09,1.51-7.06,18.62-14.06,36.37-13.63,22.1.54,27.07-12.52,27.07-12.52"/>
  </g>
  <g id="_Radial_Repeat_-3" data-name="&amp;lt;Radial Repeat&amp;gt;">
    <path class="cls-8" d="M365.03,175.53s-42.07,3.37-62.12-24.07c-20.82-28.5.28-46.86,5.17-48.7.78-.29-10.54,27.73,6.49,41.91,7.71,6.42,9.29,1.12,6.21-7.46-2.66-7.42-7.31-13.21-.23-13.94,7.18-.74,19.12,13.36,24.2,30.38,6.32,21.19,20.28,21.88,20.28,21.88"/>
  </g>
  <g id="_Radial_Repeat_-4" data-name="&amp;lt;Radial Repeat&amp;gt;">
    <path class="cls-4" d="M284.24,115.56s-16.21-38.97,3.7-66.52c20.67-28.6,44.65-14.21,47.92-10.13.52.65-29.63-1.45-37.85,19.12-3.72,9.31,1.8,9.18,9.01,3.6,6.24-4.83,10.3-11.03,13.19-4.52,2.92,6.6-6.8,22.32-21.41,32.4-18.2,12.56-14.54,26.05-14.54,26.05"/>
  </g>
  <g id="_Radial_Repeat_-5" data-name="&amp;lt;Radial Repeat&amp;gt;">
    <path class="cls-1" d="M316.31,20.19s32.05-27.46,64.4-17.04c33.59,10.82,27.31,38.07,24.44,42.44-.46.69-7.77-28.63-29.88-30.09-10.01-.66-8.17,4.55-.64,9.68,6.52,4.44,13.68,6.39,8.38,11.14-5.37,4.82-23.32.43-37.43-10.35-17.56-13.43-29.27-5.78-29.27-5.78"/>
  </g>
  <path class="cls-5" d="M356.4,50.23s16.82,10.82,11.2,19.46c-7.08,10.97-40.39,22.42-40.39,22.42h0l16.42-2.73-11.87,7.55,19.09-3.18-14.98,9.53,22.05-3.67-18.1,11.52,25.74-4.28-19.87,12.64,26.41-4.39-21.96,13.97c6.19-1.18,43.74-9.32,47.38-33.8,5.65-38.09-41.11-45.05-41.11-45.05Z"/>
</svg>