<?xml version="1.0" encoding="UTF-8"?>
<svg id="Layer_1" data-name="Layer 1" xmlns="http://www.w3.org/2000/svg" viewBox="0 0 340.16 340.16">
  <defs>
    <style>
      .cls-1 {
        fill: #0078d1;
      }

      .cls-1, .cls-2, .cls-3, .cls-4, .cls-5, .cls-6 {
        stroke-width: 0px;
      }

      .cls-2 {
        fill: #f37c11;
      }

      .cls-3 {
        fill: #fcb604;
      }

      .cls-4 {
        fill: #fb2901;
      }

      .cls-5 {
        fill: #107d0f;
      }

      .cls-6 {
        fill: #01477d;
      }
    </style>
  </defs>
  <g id="_Radial_Repeat_" data-name="&amp;lt;Radial Repeat&amp;gt;">
    <path class="cls-5" d="M269.74,40.16s69.84,42.66,70.02,108.56c.18,68.43-53.85,73.18-63.62,70.5-1.55-.42,48.14-31.49,37.59-73.14-4.78-18.86-13.29-12.34-18.24,4.62-4.28,14.68-3.59,29.05-15.53,22.12-12.1-7.02-14.77-42.76-3.34-75.23,14.24-40.44-6.87-57.43-6.87-57.43"/>
  </g>
  <g id="_Radial_Repeat_-2" data-name="&amp;lt;Radial Repeat&amp;gt;">
    <path class="cls-2" d="M328.13,226.31s-18.99,79.61-81.61,100.14c-65.02,21.31-86.24-28.6-86.71-38.72-.08-1.61,44.82,36.05,81.18,13.15,16.46-10.37,7.63-16.45-10.03-15.92-15.28.46-28.74,5.56-25.84-7.93,2.94-13.68,36.1-27.26,70.52-26.42,42.86,1.04,52.5-24.29,52.5-24.29"/>
  </g>
  <g id="_Radial_Repeat_-3" data-name="&amp;lt;Radial Repeat&amp;gt;">
    <path class="cls-6" d="M169.12,339.36s-81.58,6.54-120.45-46.67c-40.36-55.25.55-90.86,10.03-94.44,1.51-.57-20.43,53.77,12.58,81.27,14.95,12.45,18.01,2.17,12.04-14.46-5.16-14.39-14.17-25.61-.44-27.03,13.92-1.43,37.08,25.91,46.92,58.9,12.25,41.08,39.32,42.42,39.32,42.42"/>
  </g>
  <g id="_Radial_Repeat_-4" data-name="&amp;lt;Radial Repeat&amp;gt;">
    <path class="cls-3" d="M12.47,223.08s-31.43-75.56,7.17-128.98c40.08-55.46,86.58-27.55,92.91-19.64,1.01,1.26-57.45-2.82-73.4,37.08-7.22,18.06,3.5,17.8,17.47,6.98,12.09-9.36,19.98-21.39,25.57-8.77,5.67,12.8-13.18,43.27-41.52,62.83-35.28,24.35-28.2,50.51-28.2,50.51"/>
  </g>
  <g id="_Radial_Repeat_-5" data-name="&amp;lt;Radial Repeat&amp;gt;">
    <path class="cls-1" d="M74.65,38.16S136.81-15.09,199.54,5.11c65.13,20.98,52.96,73.83,47.39,82.3-.88,1.35-15.07-55.51-57.94-58.35-19.41-1.29-15.84,8.83-1.24,18.78,12.63,8.61,26.52,12.39,16.24,21.61-10.42,9.34-45.23.84-72.58-20.07-34.06-26.03-56.75-11.21-56.75-11.21"/>
  </g>
  <path class="cls-4" d="M152.39,96.39s32.61,20.98,21.71,37.74c-13.73,21.27-78.33,43.47-78.33,43.47h0l31.84-5.3-23.02,14.64,37.03-6.16-29.04,18.47,42.76-7.11-35.1,22.33,49.9-8.3-38.53,24.51,51.2-8.52-42.59,27.09c12-2.29,84.82-18.08,91.86-65.54,10.95-73.86-79.7-87.35-79.7-87.35Z"/>
</svg>